# xmcd
#
# Track frame offsets:
#	150
#	22735
#	48250
#	70582
#	90925
#	110835
#	132300
#	151440
#	177662
#	198142
#	223625
#	245017
#
# Disc length: 3527 seconds
#
# Revision: 3
# Processed by: cddbd v1.4PL0 Copyright (c) Steve Scherf et al.
# Submitted via: audiograbber 1.82.02
#
DISCID=9f0dc50c
DTITLE=Horace Brown - Horace Brown
DYEAR=1996
DGENRE=R&B
TTITLE0=Why Why Why
TTITLE1=How Can We Stop (featuring Faith Evans)
TTITLE2=Things We Do For Love
TTITLE3=I Want You Baby
TTITLE4=One For The Money
TTITLE5=Taste Your Love
TTITLE6=Trippin'
TTITLE7=I Like
TTITLE8=Just Let Me Know
TTITLE9=Gotta Find A Way
TTITLE10=You Need A Man
TTITLE11=Enjoy
EXTD=
EXTT0=
EXTT1=
EXTT2=
EXTT3=
EXTT4=
EXTT5=
EXTT6=
EXTT7=
EXTT8=
EXTT9=
EXTT10=
EXTT11=
PLAYORDER=
